<?xml version='1.0' encoding='utf-8'?>
<svg xmlns="http://www.w3.org/2000/svg" width="512" height="512" viewBox="-7.125 -36.5 320 320" fill="none"><defs>
    <linearGradient id="topBarGrad" x1="16.0" y1="119.5" x2="272.25" y2="119.5" gradientUnits="userSpaceOnUse">
      <stop offset="0%" stop-color="#e67718" />
      <stop offset="42%" stop-color="#b98a2b" />
      <stop offset="78%" stop-color="#5b637a" />
      <stop offset="100%" stop-color="#5b637a" />
    </linearGradient>
    <linearGradient id="nodeInnerGrad" x1="264.25" y1="109.35" x2="282.25" y2="129.35" gradientUnits="userSpaceOnUse">
      <stop offset="0%" stop-color="#9a9a98" />
      <stop offset="55%" stop-color="#838483" />
      <stop offset="100%" stop-color="#6f7274" />
    </linearGradient>
  </defs>

  <path d="M 260.00 25.00 L 258.00 21.50 L 254.00 17.00 L 250.25 14.25 L 247.75 13.25 L 247.00 12.50 L 245.25 12.25 L 244.00 11.50 L 240.25 11.00 L 235.25 11.00 L 233.25 11.50 L 231.25 11.50 L 230.00 12.25 L 229.00 12.25 L 223.75 15.25 L 219.00 19.75 L 215.50 25.75 L 214.25 30.50 L 214.25 33.75 L 213.75 34.25 L 180.50 34.25 L 178.25 35.00 L 175.25 35.25 L 170.00 36.50 L 168.75 37.25 L 167.50 37.25 L 163.25 39.25 L 160.25 40.25 L 155.50 42.75 L 154.00 44.00 L 151.25 45.50 L 144.75 51.00 L 119.25 76.50 L 115.50 80.75 L 109.25 86.75 L 95.25 101.25 L 95.25 101.75 L 95.75 102.25 L 97.75 102.00 L 100.75 102.25 L 112.25 102.00 L 155.25 59.00 L 159.00 56.00 L 165.50 52.00 L 166.00 52.00 L 167.25 51.00 L 174.50 48.25 L 177.25 47.75 L 178.00 47.25 L 184.00 46.25 L 199.75 46.25 L 201.00 47.00 L 202.50 46.25 L 204.00 46.00 L 206.25 46.75 L 209.25 47.00 L 211.25 46.75 L 213.50 48.00 L 214.75 47.50 L 216.00 47.75 L 216.75 47.00 L 217.50 46.75 L 220.50 50.75 L 224.00 54.00 L 228.50 56.50 L 232.25 57.75 L 235.50 58.25 L 243.25 58.00 L 245.50 57.00 L 247.50 56.75 L 252.25 54.00 L 257.00 49.50 L 258.75 47.00 L 259.75 45.00 L 260.00 43.50 L 260.75 42.50 L 261.25 39.25 L 261.75 38.50 L 262.00 37.00 L 262.00 32.75 L 260.75 27.00 Z M 236.00 22.00 L 239.75 22.00 L 243.25 23.00 L 245.50 24.25 L 248.50 27.00 L 250.25 29.50 L 251.25 33.00 L 251.25 37.50 L 250.25 40.25 L 249.25 42.00 L 245.75 45.50 L 242.75 47.00 L 240.00 47.75 L 237.50 47.75 L 234.50 47.25 L 232.00 46.25 L 230.25 45.00 L 227.00 41.50 L 226.00 39.50 L 225.00 36.25 L 225.00 32.50 L 226.75 27.75 L 229.00 25.25 L 230.75 24.00 Z" fill="#e67718" stroke="none" fill-rule="evenodd" />
  <path d="M 214.75 48.75 L 214.25 48.75 L 213.75 49.25 L 211.25 49.50 L 210.50 50.00 L 208.50 49.00 L 207.50 49.50 L 207.00 48.75 L 204.00 47.50 L 202.00 47.75 L 200.75 48.25 L 199.75 47.50 L 199.50 46.75 L 199.00 46.75 L 199.00 47.50 L 196.75 49.50 L 180.25 66.75 L 152.50 94.50 L 147.50 99.75 L 146.00 101.75 L 146.50 102.25 L 162.25 102.25 L 163.25 101.75 L 172.25 92.25 L 187.00 77.75 L 188.25 76.00 L 203.00 61.50 L 204.25 59.75 L 211.00 53.50 Z" fill="#b98a2b" stroke="none" fill-rule="evenodd" />
  <line x1="16.0" y1="119.5" x2="243.8" y2="119.5" stroke="url(#topBarGrad)" stroke-width="12.0" stroke-linecap="round" />
  <path d="M 50.25 142.75 L 51.75 145.00 L 52.75 145.75 L 55.25 146.75 L 226.75 146.75 L 234.75 139.00 L 237.00 136.50 L 237.00 135.50 L 54.25 135.50 L 52.25 136.50 L 50.50 138.50 L 50.25 139.25 Z" fill="#7da63e" stroke="none" fill-rule="evenodd" />
  <path d="M 268.25 217.50 L 268.25 211.75 L 267.75 209.25 L 266.00 204.50 L 263.00 200.50 L 258.00 196.25 L 253.00 194.00 L 249.75 193.25 L 246.00 193.00 L 243.00 193.25 L 241.25 194.00 L 239.25 194.25 L 235.50 196.25 L 233.25 198.25 L 232.25 198.25 L 222.75 189.00 L 222.75 188.25 L 243.00 168.00 L 255.75 154.50 L 260.00 150.50 L 262.00 148.00 L 262.00 147.00 L 261.00 146.00 L 257.50 144.50 L 253.50 141.25 L 251.75 140.75 L 248.50 143.50 L 242.25 150.75 L 231.25 161.50 L 228.25 165.00 L 219.00 174.25 L 214.25 179.50 L 213.50 179.50 L 206.50 173.00 L 189.75 156.25 L 189.25 156.00 L 172.25 156.25 L 172.25 156.75 L 179.25 164.00 L 201.25 185.75 L 204.25 189.00 L 204.75 190.00 L 204.00 190.75 L 201.75 191.50 L 197.00 192.25 L 190.75 192.25 L 184.75 191.25 L 179.50 189.75 L 173.50 187.00 L 168.25 183.25 L 155.50 171.25 L 141.75 157.25 L 140.25 156.75 L 39.00 157.25 L 27.25 157.00 L 15.50 157.25 L 13.25 158.50 L 12.25 159.50 L 11.00 162.00 L 11.25 165.50 L 13.75 168.00 L 16.25 169.00 L 25.25 168.75 L 135.00 168.75 L 145.00 179.00 L 159.50 192.75 L 164.00 196.00 L 166.75 197.25 L 169.25 199.00 L 170.00 199.00 L 171.50 200.00 L 172.75 200.25 L 174.00 201.00 L 174.75 201.00 L 176.50 202.00 L 178.50 202.25 L 180.00 203.00 L 182.50 203.25 L 186.25 204.25 L 197.75 204.50 L 201.75 204.25 L 204.50 203.50 L 210.75 202.75 L 212.00 202.25 L 215.25 202.00 L 216.25 201.25 L 217.50 201.25 L 220.25 204.00 L 224.00 207.00 L 225.25 209.00 L 225.00 211.50 L 224.50 212.75 L 224.50 217.00 L 225.25 220.75 L 226.00 222.00 L 226.25 223.25 L 228.25 226.75 L 232.25 231.00 L 236.50 234.00 L 238.00 234.25 L 239.00 235.00 L 241.25 235.25 L 243.00 236.00 L 250.00 236.00 L 252.00 235.25 L 253.25 235.25 L 257.00 233.50 L 259.25 232.00 L 264.00 227.50 L 264.25 226.75 L 265.75 225.00 L 267.00 222.50 Z M 244.50 204.00 L 248.50 204.00 L 251.25 205.00 L 253.00 206.00 L 256.00 209.25 L 257.25 212.00 L 257.75 216.25 L 257.25 218.00 L 256.00 220.50 L 253.75 223.00 L 252.25 224.00 L 249.25 225.25 L 245.25 225.50 L 243.25 225.00 L 240.00 223.50 L 237.75 221.50 L 236.50 219.50 L 236.00 217.75 L 235.25 216.50 L 235.25 213.50 L 236.25 210.25 L 237.00 209.00 L 240.00 206.00 Z" fill="#1697b8" stroke="none" fill-rule="evenodd" />

  <circle cx="272.25" cy="119.35" r="22.5" fill="none" stroke="#6b7591" stroke-width="12.0" />

  </svg>