<svg xmlns="http://www.w3.org/2000/svg" width="778" height="246" viewBox="0 0 778 246">
  <defs>
    <linearGradient id="topBarGrad" x1="16.0" y1="119.5" x2="272.25" y2="119.5" gradientUnits="userSpaceOnUse">
      <stop offset="0%" stop-color="#e67718" />
      <stop offset="42%" stop-color="#b98a2b" />
      <stop offset="78%" stop-color="#5b637a" />
      <stop offset="100%" stop-color="#5b637a" />
    </linearGradient>
    <linearGradient id="nodeInnerGrad" x1="264.25" y1="109.35" x2="282.25" y2="129.35" gradientUnits="userSpaceOnUse">
      <stop offset="0%" stop-color="#9a9a98" />
      <stop offset="55%" stop-color="#838483" />
      <stop offset="100%" stop-color="#6f7274" />
    </linearGradient>
  </defs>

  <path d="M 260.00 25.00 L 258.00 21.50 L 254.00 17.00 L 250.25 14.25 L 247.75 13.25 L 247.00 12.50 L 245.25 12.25 L 244.00 11.50 L 240.25 11.00 L 235.25 11.00 L 233.25 11.50 L 231.25 11.50 L 230.00 12.25 L 229.00 12.25 L 223.75 15.25 L 219.00 19.75 L 215.50 25.75 L 214.25 30.50 L 214.25 33.75 L 213.75 34.25 L 180.50 34.25 L 178.25 35.00 L 175.25 35.25 L 170.00 36.50 L 168.75 37.25 L 167.50 37.25 L 163.25 39.25 L 160.25 40.25 L 155.50 42.75 L 154.00 44.00 L 151.25 45.50 L 144.75 51.00 L 119.25 76.50 L 115.50 80.75 L 109.25 86.75 L 95.25 101.25 L 95.25 101.75 L 95.75 102.25 L 97.75 102.00 L 100.75 102.25 L 112.25 102.00 L 155.25 59.00 L 159.00 56.00 L 165.50 52.00 L 166.00 52.00 L 167.25 51.00 L 174.50 48.25 L 177.25 47.75 L 178.00 47.25 L 184.00 46.25 L 199.75 46.25 L 201.00 47.00 L 202.50 46.25 L 204.00 46.00 L 206.25 46.75 L 209.25 47.00 L 211.25 46.75 L 213.50 48.00 L 214.75 47.50 L 216.00 47.75 L 216.75 47.00 L 217.50 46.75 L 220.50 50.75 L 224.00 54.00 L 228.50 56.50 L 232.25 57.75 L 235.50 58.25 L 243.25 58.00 L 245.50 57.00 L 247.50 56.75 L 252.25 54.00 L 257.00 49.50 L 258.75 47.00 L 259.75 45.00 L 260.00 43.50 L 260.75 42.50 L 261.25 39.25 L 261.75 38.50 L 262.00 37.00 L 262.00 32.75 L 260.75 27.00 Z M 236.00 22.00 L 239.75 22.00 L 243.25 23.00 L 245.50 24.25 L 248.50 27.00 L 250.25 29.50 L 251.25 33.00 L 251.25 37.50 L 250.25 40.25 L 249.25 42.00 L 245.75 45.50 L 242.75 47.00 L 240.00 47.75 L 237.50 47.75 L 234.50 47.25 L 232.00 46.25 L 230.25 45.00 L 227.00 41.50 L 226.00 39.50 L 225.00 36.25 L 225.00 32.50 L 226.75 27.75 L 229.00 25.25 L 230.75 24.00 Z" fill="#e67718" stroke="none" fill-rule="evenodd" />
  <path d="M 214.75 48.75 L 214.25 48.75 L 213.75 49.25 L 211.25 49.50 L 210.50 50.00 L 208.50 49.00 L 207.50 49.50 L 207.00 48.75 L 204.00 47.50 L 202.00 47.75 L 200.75 48.25 L 199.75 47.50 L 199.50 46.75 L 199.00 46.75 L 199.00 47.50 L 196.75 49.50 L 180.25 66.75 L 152.50 94.50 L 147.50 99.75 L 146.00 101.75 L 146.50 102.25 L 162.25 102.25 L 163.25 101.75 L 172.25 92.25 L 187.00 77.75 L 188.25 76.00 L 203.00 61.50 L 204.25 59.75 L 211.00 53.50 Z" fill="#b98a2b" stroke="none" fill-rule="evenodd" />
  <line x1="16.0" y1="119.5" x2="243.8" y2="119.5" stroke="url(#topBarGrad)" stroke-width="12.0" stroke-linecap="round" />
  <path d="M 50.25 142.75 L 51.75 145.00 L 52.75 145.75 L 55.25 146.75 L 226.75 146.75 L 234.75 139.00 L 237.00 136.50 L 237.00 135.50 L 54.25 135.50 L 52.25 136.50 L 50.50 138.50 L 50.25 139.25 Z" fill="#7da63e" stroke="none" fill-rule="evenodd" />
  <path d="M 268.25 217.50 L 268.25 211.75 L 267.75 209.25 L 266.00 204.50 L 263.00 200.50 L 258.00 196.25 L 253.00 194.00 L 249.75 193.25 L 246.00 193.00 L 243.00 193.25 L 241.25 194.00 L 239.25 194.25 L 235.50 196.25 L 233.25 198.25 L 232.25 198.25 L 222.75 189.00 L 222.75 188.25 L 243.00 168.00 L 255.75 154.50 L 260.00 150.50 L 262.00 148.00 L 262.00 147.00 L 261.00 146.00 L 257.50 144.50 L 253.50 141.25 L 251.75 140.75 L 248.50 143.50 L 242.25 150.75 L 231.25 161.50 L 228.25 165.00 L 219.00 174.25 L 214.25 179.50 L 213.50 179.50 L 206.50 173.00 L 189.75 156.25 L 189.25 156.00 L 172.25 156.25 L 172.25 156.75 L 179.25 164.00 L 201.25 185.75 L 204.25 189.00 L 204.75 190.00 L 204.00 190.75 L 201.75 191.50 L 197.00 192.25 L 190.75 192.25 L 184.75 191.25 L 179.50 189.75 L 173.50 187.00 L 168.25 183.25 L 155.50 171.25 L 141.75 157.25 L 140.25 156.75 L 39.00 157.25 L 27.25 157.00 L 15.50 157.25 L 13.25 158.50 L 12.25 159.50 L 11.00 162.00 L 11.25 165.50 L 13.75 168.00 L 16.25 169.00 L 25.25 168.75 L 135.00 168.75 L 145.00 179.00 L 159.50 192.75 L 164.00 196.00 L 166.75 197.25 L 169.25 199.00 L 170.00 199.00 L 171.50 200.00 L 172.75 200.25 L 174.00 201.00 L 174.75 201.00 L 176.50 202.00 L 178.50 202.25 L 180.00 203.00 L 182.50 203.25 L 186.25 204.25 L 197.75 204.50 L 201.75 204.25 L 204.50 203.50 L 210.75 202.75 L 212.00 202.25 L 215.25 202.00 L 216.25 201.25 L 217.50 201.25 L 220.25 204.00 L 224.00 207.00 L 225.25 209.00 L 225.00 211.50 L 224.50 212.75 L 224.50 217.00 L 225.25 220.75 L 226.00 222.00 L 226.25 223.25 L 228.25 226.75 L 232.25 231.00 L 236.50 234.00 L 238.00 234.25 L 239.00 235.00 L 241.25 235.25 L 243.00 236.00 L 250.00 236.00 L 252.00 235.25 L 253.25 235.25 L 257.00 233.50 L 259.25 232.00 L 264.00 227.50 L 264.25 226.75 L 265.75 225.00 L 267.00 222.50 Z M 244.50 204.00 L 248.50 204.00 L 251.25 205.00 L 253.00 206.00 L 256.00 209.25 L 257.25 212.00 L 257.75 216.25 L 257.25 218.00 L 256.00 220.50 L 253.75 223.00 L 252.25 224.00 L 249.25 225.25 L 245.25 225.50 L 243.25 225.00 L 240.00 223.50 L 237.75 221.50 L 236.50 219.50 L 236.00 217.75 L 235.25 216.50 L 235.25 213.50 L 236.25 210.25 L 237.00 209.00 L 240.00 206.00 Z" fill="#1697b8" stroke="none" fill-rule="evenodd" />

  <circle cx="272.25" cy="119.35" r="22.5" fill="none" stroke="#6b7591" stroke-width="12.0" />

  <path d="M 545.75 60.25 L 530.00 60.75 L 530.25 116.00 L 545.75 116.00 L 546.25 115.75 L 546.00 92.25 L 546.25 60.75 Z M 683.50 61.25 L 679.25 63.25 L 676.50 65.00 L 672.00 69.00 L 669.25 72.50 L 666.25 79.00 L 665.25 84.00 L 665.00 90.50 L 665.25 92.75 L 665.75 93.50 L 666.00 96.00 L 667.25 100.50 L 668.25 102.75 L 671.25 107.25 L 675.75 111.50 L 681.50 114.75 L 685.75 116.25 L 688.25 116.50 L 691.25 117.25 L 699.25 117.25 L 704.00 116.50 L 709.75 114.50 L 715.75 110.75 L 718.00 108.50 L 717.75 108.00 L 715.25 105.75 L 711.25 101.00 L 710.25 100.50 L 708.75 102.00 L 706.00 104.00 L 703.75 105.00 L 699.25 106.00 L 693.50 105.75 L 691.00 105.00 L 689.00 104.00 L 684.75 99.75 L 683.50 97.50 L 682.25 93.75 L 682.00 86.50 L 682.50 82.00 L 683.75 78.50 L 685.00 76.50 L 688.25 73.25 L 691.00 71.75 L 693.00 71.00 L 696.75 70.50 L 701.50 70.75 L 706.50 72.75 L 710.25 75.75 L 710.75 75.75 L 718.00 67.50 L 718.00 66.50 L 717.25 66.25 L 716.25 65.25 L 713.50 63.50 L 709.00 61.25 L 708.00 61.25 L 705.75 60.25 L 704.00 60.25 L 701.00 59.50 L 692.75 59.25 L 690.25 60.00 L 688.25 60.00 Z M 603.25 66.75 L 603.00 67.75 L 608.25 74.00 L 610.00 75.50 L 611.25 74.50 L 614.50 72.75 L 618.75 71.50 L 620.25 70.75 L 622.50 70.75 L 624.75 70.25 L 629.75 70.50 L 633.50 71.75 L 636.50 74.50 L 638.00 77.00 L 638.25 82.00 L 637.50 82.75 L 621.25 83.25 L 620.00 83.75 L 618.25 83.75 L 616.25 84.50 L 614.50 84.75 L 611.25 86.00 L 607.25 88.25 L 603.75 91.50 L 601.50 96.25 L 600.75 100.75 L 601.25 104.75 L 602.25 107.75 L 603.25 109.50 L 605.75 112.50 L 608.25 114.25 L 613.50 116.50 L 618.25 117.25 L 622.25 117.25 L 627.25 116.50 L 628.50 115.75 L 629.75 115.50 L 633.75 113.25 L 638.00 109.25 L 638.75 109.25 L 639.50 110.25 L 639.25 112.25 L 639.75 114.25 L 639.50 115.50 L 640.00 116.00 L 652.25 116.25 L 653.75 116.00 L 654.00 115.50 L 653.75 114.00 L 654.00 80.75 L 653.50 75.25 L 652.75 74.00 L 652.50 72.00 L 651.75 71.00 L 651.50 70.00 L 649.75 67.50 L 646.50 64.25 L 642.50 62.00 L 637.50 60.25 L 636.00 60.25 L 634.00 59.50 L 631.00 59.25 L 624.75 59.25 L 617.75 60.25 L 611.75 62.25 Z M 638.25 92.50 L 638.25 99.75 L 638.00 100.50 L 634.25 104.75 L 632.25 106.00 L 628.50 107.25 L 625.50 107.50 L 622.00 107.25 L 619.25 106.00 L 616.75 103.25 L 615.75 100.75 L 616.50 97.00 L 617.00 96.00 L 619.00 94.00 L 621.00 92.75 L 626.25 91.50 L 628.25 91.75 L 637.50 91.50 Z M 470.75 60.50 L 467.00 59.25 L 461.50 59.25 L 457.75 60.25 L 456.00 61.00 L 453.25 63.00 L 450.50 65.75 L 447.75 69.75 L 447.25 69.75 L 446.75 69.25 L 446.50 64.25 L 445.50 60.75 L 445.00 60.50 L 431.75 60.75 L 431.50 61.25 L 431.75 63.50 L 431.50 114.50 L 431.75 116.00 L 447.50 115.75 L 447.75 115.00 L 447.50 85.25 L 448.50 81.75 L 449.75 79.25 L 451.50 77.00 L 453.50 75.25 L 456.25 73.75 L 458.50 73.25 L 462.25 73.00 L 467.00 73.75 L 468.00 74.50 L 468.75 74.25 L 469.50 72.25 L 469.75 69.25 L 470.50 66.75 L 470.75 63.50 L 471.50 61.50 Z M 735.25 45.50 L 734.50 46.25 L 734.25 55.75 L 734.50 59.25 L 734.00 60.25 L 733.50 60.50 L 726.75 60.75 L 725.50 60.50 L 725.00 61.00 L 725.00 71.25 L 725.25 71.75 L 733.75 71.75 L 734.25 72.25 L 734.25 101.00 L 734.50 103.00 L 735.00 104.00 L 735.00 105.75 L 736.25 109.25 L 737.50 111.25 L 739.75 113.50 L 741.50 114.75 L 746.25 116.75 L 750.00 117.25 L 755.00 117.25 L 759.50 116.75 L 761.00 116.00 L 763.50 115.50 L 767.25 113.50 L 767.50 112.00 L 766.75 111.25 L 763.25 103.50 L 762.50 103.50 L 760.50 104.75 L 757.75 105.50 L 755.25 105.25 L 754.00 104.75 L 751.75 102.50 L 750.50 99.00 L 750.50 72.25 L 751.00 71.75 L 752.25 71.50 L 764.50 71.75 L 765.00 71.25 L 764.75 63.50 L 765.00 61.00 L 764.75 60.50 L 751.75 60.50 L 750.50 59.50 L 750.75 43.75 L 750.50 43.25 L 748.75 43.25 L 744.75 44.25 L 743.00 44.25 L 741.75 44.75 L 738.75 45.00 L 737.25 45.50 Z M 487.25 45.50 L 486.75 46.00 L 486.75 60.00 L 485.75 60.75 L 483.75 60.50 L 477.50 60.75 L 477.25 69.50 L 477.75 71.50 L 485.50 71.50 L 486.50 72.25 L 486.50 102.75 L 487.25 105.00 L 487.25 106.50 L 488.00 107.50 L 488.25 108.75 L 489.25 110.50 L 492.00 113.50 L 493.50 114.50 L 498.00 116.50 L 502.25 117.25 L 508.25 117.25 L 512.00 116.75 L 513.50 116.00 L 515.75 115.50 L 518.25 114.25 L 519.50 113.00 L 518.50 111.50 L 518.25 110.00 L 517.50 108.75 L 517.50 108.00 L 515.75 104.25 L 514.50 104.00 L 513.00 105.00 L 510.50 105.50 L 507.25 105.25 L 505.25 104.00 L 503.75 102.25 L 502.50 99.00 L 502.50 72.50 L 503.75 71.50 L 516.50 71.75 L 517.00 71.25 L 517.00 61.25 L 516.75 60.75 L 504.00 60.50 L 502.75 59.75 L 502.50 59.25 L 502.25 43.25 L 495.50 44.25 L 493.00 45.00 Z M 372.50 36.00 L 371.25 38.25 L 370.50 40.75 L 367.25 48.25 L 366.75 50.25 L 365.75 52.00 L 365.00 54.75 L 364.25 56.00 L 364.00 57.50 L 362.25 61.00 L 360.00 67.25 L 359.25 68.25 L 359.00 69.75 L 358.25 70.75 L 358.25 71.50 L 356.50 75.25 L 355.00 80.25 L 354.25 81.50 L 353.75 83.50 L 351.75 88.00 L 348.00 98.75 L 345.50 104.25 L 345.00 106.25 L 344.25 107.50 L 342.00 114.00 L 341.00 115.25 L 341.25 116.00 L 358.00 116.00 L 358.50 115.50 L 358.75 114.00 L 359.50 113.00 L 359.75 111.75 L 360.50 110.50 L 360.50 109.75 L 362.50 105.25 L 364.50 99.25 L 365.50 98.50 L 398.00 98.75 L 399.25 100.00 L 399.50 101.50 L 401.25 106.25 L 403.00 110.00 L 404.00 113.25 L 404.75 114.25 L 404.75 115.00 L 405.50 116.00 L 422.75 115.75 L 422.50 114.75 L 421.75 114.00 L 419.75 108.00 L 419.00 106.75 L 418.25 104.00 L 417.75 103.50 L 417.25 101.50 L 415.50 97.75 L 415.50 97.00 L 414.75 96.00 L 414.50 94.75 L 413.75 93.50 L 413.50 91.75 L 412.75 90.50 L 411.50 86.75 L 410.75 85.75 L 410.50 84.50 L 409.75 83.50 L 408.50 79.75 L 407.50 78.00 L 404.25 68.75 L 400.75 61.00 L 400.75 60.25 L 399.75 58.25 L 399.25 56.00 L 396.75 50.25 L 396.50 48.75 L 395.75 47.50 L 394.50 43.75 L 393.75 42.75 L 392.50 39.00 L 391.50 37.50 L 391.25 36.25 L 390.75 36.00 Z M 380.75 54.00 L 381.75 53.75 L 382.50 54.75 L 382.50 55.75 L 383.25 57.75 L 384.00 59.00 L 384.25 60.25 L 385.00 61.50 L 385.25 62.75 L 386.00 64.00 L 386.00 64.75 L 389.25 72.50 L 393.00 84.25 L 393.75 85.25 L 393.75 86.00 L 392.75 86.75 L 369.75 86.75 L 369.25 86.25 L 369.25 85.25 L 370.25 83.75 L 371.75 78.75 L 372.75 76.50 L 372.75 75.50 L 376.25 67.00 L 379.50 57.25 L 380.25 56.25 Z M 533.25 36.25 L 530.50 38.75 L 529.00 42.25 L 529.25 46.75 L 531.00 49.75 L 533.50 51.50 L 536.75 52.50 L 540.50 52.50 L 541.75 51.75 L 543.00 51.50 L 543.75 50.75 L 544.50 50.50 L 546.50 48.25 L 547.50 44.75 L 547.25 41.75 L 545.50 38.25 L 543.00 36.25 L 539.75 35.25 L 536.50 35.25 Z M 597.75 36.50 L 595.50 36.25 L 594.00 35.50 L 585.00 35.00 L 580.25 35.50 L 578.75 36.25 L 577.00 36.50 L 576.50 37.00 L 573.25 38.50 L 568.25 43.50 L 566.00 47.75 L 566.00 48.75 L 565.25 50.25 L 565.00 52.25 L 565.00 60.00 L 564.00 60.75 L 559.75 60.50 L 557.50 60.75 L 556.50 60.50 L 556.00 61.00 L 556.00 71.00 L 556.25 71.50 L 563.00 71.50 L 564.75 71.75 L 565.25 72.25 L 565.50 116.00 L 576.00 116.25 L 579.00 116.00 L 580.75 116.25 L 581.25 116.00 L 581.00 72.75 L 582.25 71.50 L 594.25 71.75 L 594.75 71.50 L 595.25 68.50 L 595.25 63.75 L 594.75 60.50 L 582.25 60.50 L 581.50 60.25 L 580.75 59.50 L 581.00 53.25 L 581.50 51.50 L 582.50 49.75 L 584.50 47.75 L 587.25 46.50 L 592.25 46.50 L 593.75 46.75 L 594.50 47.25 L 595.75 47.00 L 595.75 46.25 L 596.50 45.00 L 596.75 43.25 L 598.50 38.25 L 599.00 37.75 L 598.75 37.00 Z" fill="#1697b8" stroke="none" fill-rule="evenodd" />
  <path d="M 538.75 154.25 L 534.25 152.50 L 531.75 152.00 L 523.25 152.00 L 521.25 152.25 L 516.25 154.25 L 513.50 156.25 L 509.25 160.50 L 508.75 160.50 L 508.00 159.75 L 508.25 158.00 L 507.50 156.00 L 507.50 153.75 L 506.75 153.00 L 496.00 153.25 L 493.75 153.00 L 493.25 153.25 L 493.25 228.50 L 506.50 228.75 L 508.50 228.50 L 508.75 228.00 L 508.50 226.00 L 508.75 202.75 L 509.75 202.00 L 515.25 206.25 L 519.75 208.25 L 523.75 209.00 L 531.25 208.75 L 533.00 208.50 L 534.50 207.75 L 536.75 207.25 L 540.00 205.50 L 542.25 203.75 L 545.50 200.50 L 547.50 197.75 L 549.50 193.50 L 551.25 187.75 L 551.75 183.00 L 551.75 177.75 L 551.25 172.50 L 550.50 170.25 L 550.50 169.00 L 548.75 164.25 L 546.50 160.75 L 543.25 157.50 Z M 520.50 163.50 L 524.25 163.75 L 526.75 164.50 L 529.25 165.75 L 532.00 168.25 L 533.00 169.50 L 534.25 172.50 L 535.00 175.25 L 535.25 178.50 L 535.25 182.75 L 534.75 186.25 L 533.75 189.50 L 532.25 192.25 L 530.75 194.00 L 528.00 196.00 L 525.75 197.00 L 523.00 197.25 L 521.25 197.75 L 520.00 197.25 L 516.75 196.75 L 514.75 196.00 L 512.75 194.75 L 509.75 191.75 L 509.25 190.75 L 509.00 187.50 L 509.00 172.25 L 509.50 171.00 L 511.00 168.50 L 513.25 166.25 L 515.75 164.75 L 518.75 163.75 L 520.25 163.75 Z M 574.00 155.25 L 571.00 157.25 L 567.00 160.75 L 565.25 162.75 L 563.25 166.00 L 561.25 171.00 L 560.00 177.00 L 560.25 185.75 L 561.25 190.00 L 564.25 196.25 L 567.00 199.75 L 571.75 204.00 L 575.50 206.25 L 582.25 208.50 L 586.00 209.00 L 596.75 208.75 L 598.25 208.50 L 600.00 207.75 L 602.00 207.50 L 608.25 204.50 L 610.75 202.75 L 615.00 198.50 L 616.50 196.50 L 619.25 191.00 L 620.25 187.25 L 621.00 182.00 L 620.50 174.25 L 619.75 172.50 L 619.50 170.50 L 616.50 164.25 L 613.25 160.25 L 611.00 158.25 L 610.25 158.00 L 607.75 156.00 L 602.00 153.25 L 599.75 153.00 L 598.00 152.25 L 587.75 151.75 L 583.00 152.25 L 581.00 153.00 L 579.75 153.00 Z M 590.00 163.00 L 594.75 163.75 L 596.50 164.50 L 598.75 166.00 L 601.00 168.25 L 603.00 171.75 L 603.25 173.75 L 604.00 175.75 L 604.25 179.00 L 604.25 183.25 L 603.75 186.50 L 601.75 191.50 L 600.00 193.75 L 597.50 196.00 L 595.75 197.00 L 594.00 197.25 L 592.50 198.00 L 588.25 198.00 L 585.25 197.25 L 583.00 196.00 L 580.25 193.50 L 578.50 191.00 L 577.75 189.25 L 577.50 187.75 L 576.75 186.25 L 576.25 181.50 L 576.50 175.75 L 577.50 171.50 L 578.75 169.00 L 581.75 165.75 L 583.25 164.75 L 586.25 163.50 L 589.75 163.25 Z M 443.25 153.50 L 438.00 156.00 L 436.00 157.50 L 431.25 162.25 L 429.75 164.50 L 427.25 170.00 L 426.75 172.75 L 426.00 174.75 L 425.75 183.25 L 426.25 187.50 L 427.00 189.00 L 427.50 191.75 L 429.25 195.50 L 431.00 197.75 L 431.25 198.50 L 434.25 201.50 L 436.75 203.50 L 443.25 207.00 L 448.25 208.50 L 450.00 208.50 L 451.75 209.00 L 462.75 208.75 L 464.25 208.50 L 466.00 207.75 L 467.25 207.75 L 472.75 205.50 L 475.50 203.75 L 479.25 200.75 L 479.50 199.75 L 476.75 197.00 L 474.50 194.00 L 472.75 192.25 L 472.00 192.00 L 467.50 195.00 L 465.50 196.00 L 461.75 197.25 L 460.50 197.25 L 458.25 198.00 L 456.25 198.00 L 454.75 197.75 L 453.00 197.00 L 451.75 197.00 L 448.75 195.25 L 447.75 195.00 L 444.75 192.25 L 443.75 190.75 L 442.75 188.25 L 442.00 184.25 L 442.75 183.50 L 476.50 183.50 L 481.00 183.25 L 481.50 182.75 L 481.25 173.00 L 479.50 166.75 L 477.25 162.25 L 476.00 160.50 L 471.50 156.25 L 464.75 153.00 L 460.25 152.00 L 454.75 151.75 L 447.00 152.50 Z M 442.00 173.00 L 442.50 172.25 L 442.75 170.25 L 443.75 168.25 L 447.25 164.50 L 450.25 162.75 L 453.75 162.25 L 456.50 162.25 L 459.50 162.75 L 461.50 163.75 L 465.00 167.00 L 466.50 170.25 L 467.00 174.00 L 466.25 174.75 L 445.25 174.75 L 442.50 174.25 L 442.00 173.75 Z M 636.25 138.50 L 636.00 139.00 L 635.75 152.50 L 635.25 153.00 L 634.25 153.25 L 632.75 153.00 L 627.00 153.50 L 627.00 163.75 L 627.50 164.00 L 634.75 164.00 L 635.75 164.75 L 636.00 165.75 L 636.00 184.75 L 635.75 185.00 L 636.00 187.75 L 635.75 192.50 L 636.00 195.50 L 637.00 199.25 L 638.25 201.75 L 641.00 204.75 L 643.00 206.25 L 646.00 207.75 L 648.50 208.50 L 651.75 209.00 L 655.75 209.00 L 660.50 208.50 L 664.50 207.25 L 668.50 205.50 L 668.75 204.25 L 665.75 198.75 L 664.50 195.50 L 664.00 195.00 L 659.25 196.75 L 657.25 196.75 L 655.75 196.25 L 653.75 195.00 L 652.75 193.50 L 652.00 191.00 L 652.00 165.25 L 653.00 164.25 L 665.50 164.25 L 666.00 164.00 L 666.25 163.50 L 666.25 153.50 L 665.75 153.00 L 662.25 153.25 L 653.00 153.00 L 652.25 152.50 L 652.00 152.00 L 651.75 136.25 L 650.50 136.25 L 649.25 136.75 L 641.75 138.00 L 639.50 138.00 Z M 346.00 132.00 L 346.00 207.75 L 346.50 208.00 L 358.00 207.75 L 375.75 208.00 L 384.50 207.50 L 387.00 206.75 L 389.75 206.50 L 395.75 204.50 L 399.75 202.50 L 405.50 198.50 L 410.50 193.25 L 412.50 190.25 L 414.50 185.75 L 415.75 181.75 L 416.75 177.50 L 416.75 175.25 L 417.25 174.00 L 417.25 166.50 L 416.75 164.75 L 416.75 162.25 L 415.75 157.50 L 412.75 150.25 L 409.25 145.25 L 404.50 140.50 L 400.00 137.50 L 395.50 135.25 L 390.25 133.50 L 386.75 132.75 L 385.00 132.75 L 381.75 132.00 L 377.00 131.75 L 346.50 131.75 Z M 363.00 144.75 L 376.75 144.50 L 378.50 145.00 L 380.25 145.00 L 381.25 145.50 L 384.00 145.75 L 389.25 148.00 L 391.75 149.75 L 395.25 153.50 L 397.00 156.25 L 398.75 160.25 L 399.75 164.50 L 400.00 174.50 L 399.50 175.50 L 399.25 178.25 L 398.25 181.50 L 395.50 186.50 L 393.50 188.75 L 389.25 192.00 L 384.25 194.00 L 381.75 194.25 L 379.75 195.00 L 363.50 195.00 L 362.50 194.25 L 362.25 193.75 L 362.50 191.75 L 362.25 190.75 L 362.25 159.00 L 362.50 145.25 Z" fill="#7aa23c" stroke="none" fill-rule="evenodd" />
</svg>